
<svg width="622px" height="50px">
<text transform="matrix(1 0 0 1 69 17.1426)" fill="#666666" font-family="'SFProDisplay-Regular'" font-size="14">Sport type</text>
<text transform="matrix(1 0 0 1 69 42.1426)" fill="#333333" font-family="'SFProDisplay-Bold'" font-size="24">Cycling</text>
<g>
	<path opacity="0.8" fill="#1ABC9C" d="M44.571,29.41c0,1.447-0.397,2.652-1.192,3.616c-0.795,0.964-1.897,1.446-3.308,1.446
		c-0.732,0-1.424-0.156-2.076-0.469c-0.652-0.312-1.179-0.651-1.581-1.018c-0.402-0.365-0.906-0.705-1.513-1.018
		C34.294,31.656,33.661,31.5,33,31.5c-1.964,0-2.946,1.107-2.946,3.321c0,0.696,0.143,1.724,0.428,3.08
		c0.286,1.357,0.419,2.384,0.402,3.081v0.133c-0.393,0-0.688,0.01-0.884,0.027c-0.607,0.054-1.478,0.156-2.612,0.309
		c-1.134,0.15-2.165,0.271-3.094,0.361c-0.929,0.089-1.804,0.134-2.625,0.134c-1.089,0-2.009-0.237-2.759-0.71
		S17.786,40.018,17.786,39c0-0.66,0.156-1.295,0.469-1.902c0.312-0.606,0.652-1.111,1.018-1.514c0.366-0.401,0.705-0.928,1.018-1.58
		c0.312-0.651,0.469-1.344,0.469-2.076c0-1.41-0.482-2.513-1.446-3.308c-0.964-0.794-2.169-1.192-3.616-1.192
		c-1.5,0-2.777,0.407-3.83,1.219c-1.054,0.813-1.581,1.951-1.581,3.416c0,0.768,0.134,1.509,0.402,2.223
		c0.268,0.715,0.567,1.291,0.897,1.729c0.33,0.438,0.629,0.91,0.897,1.419c0.268,0.509,0.402,0.96,0.402,1.353
		c0,0.804-0.411,1.599-1.232,2.385c-0.661,0.624-1.706,0.938-3.134,0.938c-1.697,0-3.884-0.215-6.562-0.644
		c-0.161-0.036-0.407-0.071-0.737-0.106c-0.331-0.037-0.576-0.072-0.737-0.107l-0.348-0.054c-0.018,0-0.044-0.009-0.08-0.026
		C0.018,41.17,0,41.16,0,41.143V13.714c0.036,0.018,0.192,0.05,0.469,0.094c0.277,0.045,0.58,0.09,0.911,0.134
		c0.33,0.045,0.522,0.076,0.576,0.094c2.678,0.429,4.866,0.643,6.562,0.643c1.428,0,2.473-0.312,3.134-0.938
		c0.821-0.786,1.232-1.581,1.232-2.384c0-0.393-0.134-0.844-0.402-1.353c-0.268-0.509-0.567-0.981-0.897-1.419
		c-0.331-0.437-0.629-1.013-0.897-1.728s-0.402-1.456-0.402-2.223c0-1.464,0.526-2.603,1.581-3.415C12.919,0.406,14.205,0,15.723,0
		c1.429,0,2.625,0.397,3.589,1.191c0.964,0.795,1.446,1.898,1.446,3.309c0,0.732-0.156,1.424-0.469,2.076s-0.652,1.178-1.018,1.581
		c-0.366,0.401-0.706,0.906-1.018,1.513s-0.469,1.241-0.469,1.902c0,1.018,0.375,1.764,1.125,2.236
		c0.75,0.474,1.669,0.71,2.759,0.71c1.143,0,2.75-0.134,4.822-0.402c2.071-0.268,3.526-0.419,4.366-0.456v0.054
		c-0.018,0.036-0.049,0.192-0.094,0.469c-0.044,0.277-0.089,0.581-0.134,0.911c-0.045,0.33-0.076,0.522-0.094,0.576
		c-0.429,2.678-0.643,4.866-0.643,6.562c0,1.429,0.312,2.473,0.938,3.133c0.785,0.822,1.58,1.232,2.384,1.232
		c0.393,0,0.844-0.134,1.353-0.401c0.509-0.269,0.982-0.567,1.42-0.897c0.437-0.33,1.013-0.629,1.728-0.897
		C38.428,24.134,39.169,24,39.938,24c1.464,0,2.603,0.526,3.415,1.58S44.571,27.91,44.571,29.41z"/>
</g>
<text transform="matrix(1 0 0 1 287 17.1426)" fill="#666666" font-family="'SFProDisplay-Regular'" font-size="14">Mode</text>
<text transform="matrix(1 0 0 1 287 42.1426)" fill="#333333" font-family="'SFProDisplay-Bold'" font-size="24">Advanced</text>
<g>
	<path opacity="0.8" fill="#1ABC9C" d="M262.571,12.857v3.428c0,1.269-0.371,2.545-1.111,3.831c-0.741,1.286-1.741,2.447-3,3.482
		c-1.259,1.036-2.804,1.906-4.634,2.611c-1.831,0.706-3.754,1.104-5.772,1.192c-0.75,0.964-1.599,1.812-2.545,2.545
		c-0.679,0.607-1.147,1.255-1.406,1.942s-0.388,1.486-0.388,2.396c0,0.965,0.272,1.777,0.817,2.438
		c0.544,0.661,1.415,0.991,2.612,0.991c1.339,0,2.531,0.406,3.576,1.219c1.044,0.813,1.567,1.835,1.567,3.067v1.714
		c0,0.25-0.08,0.456-0.241,0.616c-0.161,0.16-0.366,0.241-0.616,0.241h-22.286c-0.25,0-0.456-0.081-0.616-0.241
		s-0.241-0.366-0.241-0.616V42c0-1.232,0.522-2.254,1.567-3.067c1.045-0.812,2.237-1.219,3.576-1.219
		c1.196,0,2.066-0.33,2.611-0.991c0.544-0.66,0.817-1.473,0.817-2.438c0-0.91-0.129-1.709-0.388-2.396
		c-0.259-0.688-0.728-1.335-1.406-1.942c-0.947-0.732-1.794-1.581-2.544-2.545c-2.019-0.089-3.942-0.486-5.772-1.192
		c-1.831-0.705-3.375-1.575-4.634-2.611c-1.259-1.035-2.259-2.196-3-3.482C218.371,18.83,218,17.554,218,16.285v-3.428
		c0-0.714,0.25-1.321,0.75-1.822c0.5-0.5,1.107-0.75,1.821-0.75h7.714V7.714c0-1.179,0.419-2.187,1.259-3.026
		s1.849-1.259,3.027-1.259H248c1.179,0,2.187,0.42,3.027,1.259c0.839,0.839,1.259,1.848,1.259,3.026v2.571H260
		c0.714,0,1.321,0.25,1.821,0.75C262.321,11.536,262.571,12.143,262.571,12.857z M230.268,23.651
		c-1.322-2.893-1.982-6.205-1.982-9.938h-6.857v2.571c0,1.393,0.844,2.84,2.531,4.34S227.75,23.134,230.268,23.651z M259.143,16.285
		v-2.571h-6.857c0,3.732-0.661,7.045-1.982,9.938c2.518-0.518,4.621-1.526,6.308-3.026S259.143,17.678,259.143,16.285z"/>
</g>
<text transform="matrix(1 0 0 1 528 17.1426)" fill="#666666" font-family="'SFProDisplay-Regular'" font-size="14">Route</text>
<text transform="matrix(1 0 0 1 528 42.1426)" fill="#333333" font-family="'SFProDisplay-Bold'" font-size="24">30 miles</text>
<g>
	<path opacity="0.8" fill="#1ABC9C" d="M507.857,20.571c0.464,0,0.865,0.17,1.205,0.509c0.339,0.339,0.509,0.741,0.509,1.205v6.857
		c0,0.465-0.17,0.866-0.509,1.205c-0.34,0.34-0.741,0.51-1.205,0.51h-36c-0.715,0-1.322-0.25-1.822-0.75l-3.776-3.777
		c-0.179-0.178-0.268-0.384-0.268-0.616c0-0.231,0.089-0.438,0.268-0.616l3.776-3.776c0.5-0.5,1.107-0.75,1.822-0.75h13.714v-5.143
		h6.857v5.143H507.857z M511.741,7.955c0.179,0.179,0.268,0.384,0.268,0.616c0,0.232-0.089,0.438-0.268,0.616l-3.776,3.776
		c-0.5,0.5-1.107,0.75-1.822,0.75h-36c-0.465,0-0.866-0.169-1.205-0.509c-0.34-0.339-0.509-0.741-0.509-1.205V5.143
		c0-0.464,0.169-0.866,0.509-1.205c0.339-0.339,0.74-0.509,1.205-0.509h15.429V1.714c0-0.464,0.169-0.866,0.509-1.205
		C486.42,0.17,486.821,0,487.285,0h3.43c0.463,0,0.865,0.17,1.205,0.509c0.339,0.339,0.509,0.741,0.509,1.205v1.714h13.714
		c0.715,0,1.322,0.25,1.822,0.75L511.741,7.955z M485.571,32.571h6.857v13.714c0,0.465-0.17,0.866-0.509,1.205
		c-0.34,0.34-0.742,0.51-1.205,0.51h-3.43c-0.464,0-0.865-0.17-1.205-0.51c-0.34-0.339-0.509-0.74-0.509-1.205V32.571z"/>
</g>
</svg>
