<svg height="40px">
<path fill="none" stroke="#1ABC9C" stroke-width="0" stroke-linecap="round" stroke-linejoin="round" d="M40,5c0-2.761-2.239-5-5-5
	H5C2.239,0,0,2.239,0,5v30c0,2.761,2.239,5,5,5h30c2.761,0,5-2.239,5-5V5z"/>
<path fill="#1ABC9C" d="M5,40h30c2.761,0,5-2.239,5-5V5c0-2.761-2.239-5-5-5H5C2.239,0,0,2.239,0,5v30C0,37.761,2.239,40,5,40z"/>
<path fill="#FFFFFF" d="M33.254,30.801c0,1.172-0.938,2.109-2.109,2.109H12.406c-1.172,0-2.109-0.938-2.109-2.109V12.062
	c0-1.172,0.938-2.109,2.109-2.109h18.738c1.172,0,2.109,0.938,2.109,2.109V30.801z M30.957,13.938c0-0.938-0.75-1.688-1.688-1.688
	h-15c-0.938,0-1.688,0.75-1.688,1.688v14.988c0,0.938,0.75,1.688,1.688,1.688h15c0.938,0,1.688-0.75,1.688-1.688V13.938z
	 M21.852,14.711c2.742,0,4.535,1.477,4.535,3.645c0,1.383-0.68,2.355-2.027,3.129c-1.277,0.727-1.629,1.172-1.629,2.051v0.492
	h-2.555l-0.012-0.48c-0.129-1.512,0.398-2.32,1.699-3.094c1.23-0.727,1.594-1.16,1.594-2.016c0-0.844-0.715-1.441-1.77-1.441
	c-1.078,0-1.793,0.645-1.84,1.641h-2.637C17.27,16.293,18.934,14.711,21.852,14.711z M19.801,26.922c0-1.008,0.68-1.605,1.758-1.605
	s1.746,0.598,1.746,1.605c0,0.996-0.668,1.605-1.746,1.605S19.801,27.918,19.801,26.922z"/>
<text transform="matrix(1 0 0 1 50.0005 27)" fill="#333333" font-family="'SFProDisplay-SemiBold'" font-size="20">Venturus Sports</text>
</svg>
